<?xml version="1.0" encoding="UTF-8" standalone="no"?>
<!DOCTYPE svg PUBLIC "-//W3C//DTD SVG 1.1//EN" "http://www.w3.org/Graphics/SVG/1.1/DTD/svg11.dtd">
<!-- Created with Vectornator (http://vectornator.io/) -->
<svg height="100%" stroke-miterlimit="10" style="fill-rule:nonzero;clip-rule:evenodd;stroke-linecap:round;stroke-linejoin:round;" version="1.1" viewBox="0 0 170.1 240.975" width="100%" xml:space="preserve" xmlns="http://www.w3.org/2000/svg" xmlns:vectornator="http://vectornator.io" xmlns:xlink="http://www.w3.org/1999/xlink">
<defs/>
<g id="Layer-1" vectornator:layerName="Layer 1">
<path d="M20.586 33.9509C20.586 25.6666 27.3017 18.9509 35.586 18.9509L136.969 18.9509C145.254 18.9509 151.969 25.6666 151.969 33.9509L151.969 210.004C151.969 218.288 145.254 225.004 136.969 225.004L35.586 225.004C27.3017 225.004 20.586 218.288 20.586 210.004L20.586 33.9509Z" fill="#eaeaea" fill-rule="nonzero" opacity="1" stroke="none" vectornator:layerName="Rectangle 1"/>
</g>
<g id="Text" vectornator:layerName="Text">
<g fill="#0000ff" opacity="1" stroke="none" vectornator:layerName="Text 1">
<path d="M35.549 102.082C35.3849 102.074 35.2521 102.07 35.1505 102.07C33.8068 102.07 32.9044 102.508 32.4435 103.383C32.1857 103.875 32.0568 104.633 32.0568 105.656L32.0568 111.762L28.6935 111.762L28.6935 98.9883L31.881 98.9883L31.881 101.215C32.3966 100.363 32.8458 99.7813 33.2287 99.4688C33.8537 98.9454 34.6662 98.6836 35.6662 98.6836C35.7287 98.6836 35.7814 98.6856 35.8244 98.6895C35.8673 98.6934 35.963 98.6993 36.1115 98.7071L36.1115 102.129C35.9005 102.106 35.713 102.09 35.549 102.082Z"/>
<path d="M39.0177 104.953C39.6818 104.57 40.6583 104.297 41.9474 104.133L43.0841 103.992C43.7013 103.914 44.1427 103.816 44.4083 103.699C44.8849 103.496 45.1232 103.18 45.1232 102.75C45.1232 102.227 44.9415 101.865 44.5783 101.666C44.215 101.467 43.6818 101.367 42.9787 101.367C42.1896 101.367 41.631 101.563 41.3029 101.953C41.0685 102.242 40.9122 102.633 40.8341 103.125L37.6115 103.125C37.6818 102.008 37.9943 101.09 38.549 100.371C39.4318 99.2461 40.9474 98.6836 43.0958 98.6836C44.4943 98.6836 45.7365 98.961 46.8224 99.5157C47.9083 100.07 48.4513 101.117 48.4513 102.656L48.4513 108.516C48.4513 108.922 48.4591 109.414 48.4747 109.992C48.4982 110.43 48.5646 110.727 48.674 110.883C48.7833 111.039 48.9474 111.168 49.1662 111.27L49.1662 111.762L45.5333 111.762C45.4318 111.504 45.3615 111.262 45.3224 111.035C45.2833 110.809 45.2521 110.551 45.2287 110.262C44.7677 110.762 44.2365 111.188 43.6349 111.539C42.9162 111.953 42.1037 112.16 41.1974 112.16C40.0412 112.16 39.0861 111.83 38.3322 111.17C37.5783 110.51 37.2013 109.574 37.2013 108.363C37.2013 106.793 37.8068 105.656 39.0177 104.953ZM44.174 109.102C44.7755 108.68 45.088 107.91 45.1115 106.793L45.1115 105.551C44.9005 105.684 44.6876 105.791 44.4728 105.873C44.2579 105.955 43.963 106.031 43.588 106.102L42.838 106.242C42.1349 106.367 41.631 106.52 41.3263 106.699C40.8107 107.004 40.5529 107.477 40.5529 108.117C40.5529 108.688 40.7111 109.1 41.0275 109.354C41.3439 109.607 41.7287 109.734 42.1818 109.734C42.9005 109.734 43.5646 109.523 44.174 109.102Z"/>
</g>
<g fill="#0000ff" opacity="1" stroke="none" vectornator:layerName="Text 2">
<path d="M128.109 104.953C128.773 104.57 129.749 104.297 131.038 104.133L132.175 103.992C132.792 103.914 133.234 103.816 133.499 103.699C133.976 103.496 134.214 103.18 134.214 102.75C134.214 102.227 134.032 101.865 133.669 101.666C133.306 101.467 132.773 101.367 132.069 101.367C131.28 101.367 130.722 101.563 130.394 101.953C130.159 102.242 130.003 102.633 129.925 103.125L126.702 103.125C126.773 102.008 127.085 101.09 127.64 100.371C128.523 99.2461 130.038 98.6836 132.187 98.6836C133.585 98.6836 134.827 98.961 135.913 99.5157C136.999 100.07 137.542 101.117 137.542 102.656L137.542 108.516C137.542 108.922 137.55 109.414 137.566 109.992C137.589 110.43 137.655 110.727 137.765 110.883C137.874 111.039 138.038 111.168 138.257 111.27L138.257 111.762L134.624 111.762C134.523 111.504 134.452 111.262 134.413 111.035C134.374 110.809 134.343 110.551 134.319 110.262C133.859 110.762 133.327 111.188 132.726 111.539C132.007 111.953 131.194 112.16 130.288 112.16C129.132 112.16 128.177 111.83 127.423 111.17C126.669 110.51 126.292 109.574 126.292 108.363C126.292 106.793 126.898 105.656 128.109 104.953ZM133.265 109.102C133.866 108.68 134.179 107.91 134.202 106.793L134.202 105.551C133.991 105.684 133.778 105.791 133.564 105.873C133.349 105.955 133.054 106.031 132.679 106.102L131.929 106.242C131.226 106.367 130.722 106.52 130.417 106.699C129.901 107.004 129.644 107.477 129.644 108.117C129.644 108.688 129.802 109.1 130.118 109.354C130.435 109.607 130.819 109.734 131.273 109.734C131.991 109.734 132.655 109.523 133.265 109.102Z"/>
<path d="M140.577 94.4883L143.917 94.4883L143.917 111.762L140.577 111.762L140.577 94.4883Z"/>
</g>
<g fill="#000000" opacity="1" stroke="none" vectornator:layerName="Text 3">
<path d="M67.6941 35.2253C67.6701 35.1053 67.6191 35.0063 67.5411 34.9283C67.4631 34.8503 67.3341 34.8113 67.1541 34.8113L63.8061 34.8113L63.8061 36.4853L69.5841 36.4853C69.6801 36.4853 69.7521 36.4523 69.8001 36.3863C69.8481 36.3203 69.8841 36.1733 69.9081 35.9453L70.1241 35.9453L70.1241 39.0233L69.9081 39.0233C69.8841 38.8673 69.8481 38.7713 69.8001 38.7353C69.7521 38.6993 69.6801 38.6813 69.5841 38.6813L60.6021 38.6813L60.6021 38.4653C60.8301 38.4413 60.9711 38.4023 61.0251 38.3483C61.0791 38.2943 61.1061 38.2253 61.1061 38.1413L61.1061 29.7533C61.1061 29.6693 61.0791 29.6003 61.0251 29.5463C60.9711 29.4923 60.8301 29.4533 60.6021 29.4293L60.6021 29.2133L69.5841 29.2133C69.6801 29.2133 69.7521 29.1803 69.8001 29.1143C69.8481 29.0483 69.8841 28.9133 69.9081 28.7093L70.1241 28.7093L70.1241 31.8413L69.9081 31.8413C69.8841 31.6373 69.8481 31.5023 69.8001 31.4363C69.7521 31.3703 69.6801 31.3373 69.5841 31.3373L63.8061 31.3373L63.8061 32.8313L67.1541 32.8313C67.3341 32.8313 67.4631 32.7923 67.5411 32.7143C67.6191 32.6363 67.6701 32.5373 67.6941 32.4173L67.9101 32.4173L67.9101 35.2253L67.6941 35.2253Z"/>
<path d="M69.1341 52.4653C69.3621 52.4413 69.5031 52.4023 69.5571 52.3483C69.6111 52.2943 69.6381 52.2253 69.6381 52.1413L69.6381 45.5173L69.6021 45.4813L66.3981 52.4653L63.2301 45.4093L63.1941 45.4093L63.1941 52.1413C63.1941 52.2253 63.2211 52.2943 63.2751 52.3483C63.3291 52.4023 63.4701 52.4413 63.6981 52.4653L63.6981 52.6813L60.5301 52.6813L60.5301 52.4653C60.7581 52.4413 60.8991 52.4023 60.9531 52.3483C61.0071 52.2943 61.0341 52.2253 61.0341 52.1413L61.0341 43.7533C61.0341 43.6693 61.0071 43.6003 60.9531 43.5463C60.8991 43.4923 60.7581 43.4533 60.5301 43.4293L60.5301 43.2133L65.2281 43.2133L65.2281 43.4293C64.9401 43.4413 64.7961 43.5493 64.7961 43.7533C64.7961 43.7653 64.8321 43.8613 64.9041 44.0413C64.9761 44.2213 65.0691 44.4433 65.1831 44.7073C65.2971 44.9713 65.4231 45.2563 65.5611 45.5623C65.6991 45.8683 65.8311 46.1623 65.9571 46.4443C66.0831 46.7263 66.1941 46.9753 66.2901 47.1913C66.3861 47.4073 66.4521 47.5513 66.4881 47.6233C66.6921 47.1673 66.9021 46.7233 67.1181 46.2913C67.3341 45.8593 67.5291 45.4633 67.7031 45.1033C67.8771 44.7433 68.0181 44.4433 68.1261 44.2033C68.2341 43.9633 68.2881 43.8133 68.2881 43.7533C68.2881 43.5493 68.1441 43.4413 67.8561 43.4293L67.8561 43.2133L72.7341 43.2133L72.7341 43.4293C72.5061 43.4533 72.3651 43.4923 72.3111 43.5463C72.2571 43.6003 72.2301 43.6693 72.2301 43.7533L72.2301 52.1413C72.2301 52.2253 72.2571 52.2943 72.3111 52.3483C72.3651 52.4023 72.5061 52.4413 72.7341 52.4653L72.7341 52.6813L69.1341 52.6813L69.1341 52.4653Z"/>
<path d="M66.7941 64.7733C67.4421 64.7733 67.8981 64.6923 68.1621 64.5303C68.4261 64.3683 68.5581 64.0893 68.5581 63.6933C68.5581 63.2973 68.4261 63.0183 68.1621 62.8563C67.8981 62.6943 67.4421 62.6133 66.7941 62.6133L63.7341 62.6133L63.7341 64.7733L66.7941 64.7733ZM66.1821 60.7773C66.5661 60.7773 66.8841 60.7683 67.1361 60.7503C67.3881 60.7323 67.5861 60.6933 67.7301 60.6333C67.8741 60.5733 67.9761 60.4893 68.0361 60.3813C68.0961 60.2733 68.1261 60.1293 68.1261 59.9493C68.1261 59.7693 68.0961 59.6253 68.0361 59.5173C67.9761 59.4093 67.8741 59.3253 67.7301 59.2653C67.5861 59.2053 67.3881 59.1663 67.1361 59.1483C66.8841 59.1303 66.5661 59.1213 66.1821 59.1213L63.7341 59.1213L63.7341 60.7773L66.1821 60.7773ZM61.0341 57.7533C61.0341 57.6693 61.0071 57.6003 60.9531 57.5463C60.8991 57.4923 60.7581 57.4533 60.5301 57.4293L60.5301 57.2133L67.3881 57.2133C67.8801 57.2133 68.3301 57.2613 68.7381 57.3573C69.1461 57.4533 69.5001 57.6003 69.8001 57.7983C70.1001 57.9963 70.3341 58.2543 70.5021 58.5723C70.6701 58.8903 70.7541 59.2713 70.7541 59.7153C70.7541 60.2553 70.5921 60.6903 70.2681 61.0203C69.9441 61.3503 69.5301 61.5693 69.0261 61.6773L69.0261 61.7133C69.6381 61.8813 70.1391 62.1393 70.5291 62.4873C70.9191 62.8353 71.1141 63.3453 71.1141 64.0173C71.1141 64.3773 71.0451 64.7193 70.9071 65.0433C70.7691 65.3673 70.5531 65.6493 70.2591 65.8893C69.9651 66.1293 69.5871 66.3213 69.1251 66.4653C68.6631 66.6093 68.1141 66.6813 67.4781 66.6813L60.5301 66.6813L60.5301 66.4653C60.7581 66.4413 60.8991 66.4023 60.9531 66.3483C61.0071 66.2943 61.0341 66.2253 61.0341 66.1413L61.0341 57.7533Z"/>
<path d="M67.6941 77.2253C67.6701 77.1053 67.6191 77.0063 67.5411 76.9283C67.4631 76.8503 67.3341 76.8113 67.1541 76.8113L63.8061 76.8113L63.8061 78.4853L69.5841 78.4853C69.6801 78.4853 69.7521 78.4523 69.8001 78.3863C69.8481 78.3203 69.8841 78.1733 69.9081 77.9453L70.1241 77.9453L70.1241 81.0233L69.9081 81.0233C69.8841 80.8673 69.8481 80.7713 69.8001 80.7353C69.7521 80.6993 69.6801 80.6813 69.5841 80.6813L60.6021 80.6813L60.6021 80.4653C60.8301 80.4413 60.9711 80.4023 61.0251 80.3483C61.0791 80.2943 61.1061 80.2253 61.1061 80.1413L61.1061 71.7533C61.1061 71.6693 61.0791 71.6003 61.0251 71.5463C60.9711 71.4923 60.8301 71.4533 60.6021 71.4293L60.6021 71.2133L69.5841 71.2133C69.6801 71.2133 69.7521 71.1803 69.8001 71.1143C69.8481 71.0483 69.8841 70.9133 69.9081 70.7093L70.1241 70.7093L70.1241 73.8413L69.9081 73.8413C69.8841 73.6373 69.8481 73.5023 69.8001 73.4363C69.7521 73.3703 69.6801 73.3373 69.5841 73.3373L63.8061 73.3373L63.8061 74.8313L67.1541 74.8313C67.3341 74.8313 67.4631 74.7923 67.5411 74.7143C67.6191 74.6363 67.6701 74.5373 67.6941 74.4173L67.9101 74.4173L67.9101 77.2253L67.6941 77.2253Z"/>
</g>
<g fill="#000000" opacity="1" stroke="none" vectornator:layerName="Text 4">
<path d="M89.0137 42.4753C89.5177 42.4753 89.8867 42.3913 90.1207 42.2233C90.3547 42.0553 90.4717 41.7793 90.4717 41.3953C90.4717 41.0473 90.3547 40.7953 90.1207 40.6393C89.8867 40.4833 89.5177 40.4053 89.0137 40.4053L86.2777 40.4053L86.2777 42.4753L89.0137 42.4753ZM86.2777 47.3173C86.2777 47.4013 86.3047 47.4703 86.3587 47.5243C86.4127 47.5783 86.5537 47.6173 86.7817 47.6413L86.7817 47.8573L83.0737 47.8573L83.0737 47.6413C83.3017 47.6173 83.4427 47.5783 83.4967 47.5243C83.5507 47.4703 83.5777 47.4013 83.5777 47.3173L83.5777 38.9293C83.5777 38.8453 83.5507 38.7763 83.4967 38.7223C83.4427 38.6683 83.3017 38.6293 83.0737 38.6053L83.0737 38.3893L89.5177 38.3893C90.0817 38.3893 90.5797 38.4703 91.0117 38.6323C91.4437 38.7943 91.8037 39.0133 92.0917 39.2893C92.3797 39.5653 92.5957 39.8863 92.7397 40.2523C92.8837 40.6183 92.9557 40.9993 92.9557 41.3953C92.9557 41.7913 92.8837 42.1723 92.7397 42.5383C92.5957 42.9043 92.3797 43.2223 92.0917 43.4923C91.8037 43.7623 91.4437 43.9783 91.0117 44.1403C90.5797 44.3023 90.0817 44.3833 89.5177 44.3833L86.2777 44.3833L86.2777 47.3173Z"/>
<path d="M89.3017 56.3853C89.8297 56.3853 90.1927 56.2863 90.3907 56.0883C90.5887 55.8903 90.6877 55.6593 90.6877 55.3953C90.6877 55.1313 90.5887 54.9003 90.3907 54.7023C90.1927 54.5043 89.8297 54.4053 89.3017 54.4053L86.2777 54.4053L86.2777 56.3853L89.3017 56.3853ZM86.2777 61.3173C86.2777 61.4013 86.3047 61.4703 86.3587 61.5243C86.4127 61.5783 86.5537 61.6173 86.7817 61.6413L86.7817 61.8573L83.0737 61.8573L83.0737 61.6413C83.3017 61.6173 83.4427 61.5783 83.4967 61.5243C83.5507 61.4703 83.5777 61.4013 83.5777 61.3173L83.5777 52.9293C83.5777 52.8453 83.5507 52.7763 83.4967 52.7223C83.4427 52.6683 83.3017 52.6293 83.0737 52.6053L83.0737 52.3893L89.6617 52.3893C90.9937 52.3893 91.9597 52.6323 92.5597 53.1183C93.1597 53.6043 93.4597 54.3573 93.4597 55.3773C93.4597 56.2053 93.2167 56.8533 92.7307 57.3213C92.2447 57.7893 91.6297 58.1253 90.8857 58.3293L93.0097 61.3173C93.1537 61.5333 93.3277 61.6413 93.5317 61.6413L93.5317 61.8573L89.7877 61.8573L89.7877 61.6413C90.0517 61.6293 90.1837 61.5213 90.1837 61.3173C90.1837 61.2933 90.1357 61.2093 90.0397 61.0653C89.9437 60.9213 89.8237 60.7473 89.6797 60.5433C89.5357 60.3393 89.3767 60.1203 89.2027 59.8863C89.0287 59.6523 88.8607 59.4273 88.6987 59.2113C88.5367 58.9953 88.3957 58.8033 88.2757 58.6353C88.1557 58.4673 88.0777 58.3533 88.0417 58.2933L86.2777 58.2933L86.2777 61.3173Z"/>
<path d="M90.1657 72.4013C90.1417 72.2813 90.0907 72.1823 90.0127 72.1043C89.9347 72.0263 89.8057 71.9873 89.6257 71.9873L86.2777 71.9873L86.2777 73.6613L92.0557 73.6613C92.1517 73.6613 92.2237 73.6283 92.2717 73.5623C92.3197 73.4963 92.3557 73.3493 92.3797 73.1213L92.5957 73.1213L92.5957 76.1993L92.3797 76.1993C92.3557 76.0433 92.3197 75.9473 92.2717 75.9113C92.2237 75.8753 92.1517 75.8573 92.0557 75.8573L83.0737 75.8573L83.0737 75.6413C83.3017 75.6173 83.4427 75.5783 83.4967 75.5243C83.5507 75.4703 83.5777 75.4013 83.5777 75.3173L83.5777 66.9293C83.5777 66.8453 83.5507 66.7763 83.4967 66.7223C83.4427 66.6683 83.3017 66.6293 83.0737 66.6053L83.0737 66.3893L92.0557 66.3893C92.1517 66.3893 92.2237 66.3563 92.2717 66.2903C92.3197 66.2243 92.3557 66.0893 92.3797 65.8853L92.5957 65.8853L92.5957 69.0173L92.3797 69.0173C92.3557 68.8133 92.3197 68.6783 92.2717 68.6123C92.2237 68.5463 92.1517 68.5133 92.0557 68.5133L86.2777 68.5133L86.2777 70.0073L89.6257 70.0073C89.8057 70.0073 89.9347 69.9683 90.0127 69.8903C90.0907 69.8123 90.1417 69.7133 90.1657 69.5933L90.3817 69.5933L90.3817 72.4013L90.1657 72.4013Z"/>
<path d="M88.5637 87.7333C89.5117 87.7333 90.1957 87.4903 90.6157 87.0043C91.0357 86.5183 91.2457 85.8913 91.2457 85.1233C91.2457 84.3553 91.0357 83.7283 90.6157 83.2423C90.1957 82.7563 89.5117 82.5133 88.5637 82.5133L86.2777 82.5133L86.2777 87.7333L88.5637 87.7333ZM83.5777 80.9293C83.5777 80.8453 83.5507 80.7763 83.4967 80.7223C83.4427 80.6683 83.3017 80.6293 83.0737 80.6053L83.0737 80.3893L89.0497 80.3893C89.8777 80.3893 90.5977 80.5093 91.2097 80.7493C91.8217 80.9893 92.3257 81.3223 92.7217 81.7483C93.1177 82.1743 93.4147 82.6753 93.6127 83.2513C93.8107 83.8273 93.9097 84.4513 93.9097 85.1233C93.9097 85.7353 93.8047 86.3263 93.5947 86.8963C93.3847 87.4663 93.0667 87.9703 92.6407 88.4083C92.2147 88.8463 91.6867 89.1973 91.0567 89.4613C90.4267 89.7253 89.6917 89.8573 88.8517 89.8573L83.0737 89.8573L83.0737 89.6413C83.3017 89.6173 83.4427 89.5783 83.4967 89.5243C83.5507 89.4703 83.5777 89.4013 83.5777 89.3173L83.5777 80.9293Z"/>
</g>
<g fill="#000000" opacity="1" stroke="none" vectornator:layerName="Text 5">
<path d="M90.5515 125.363C90.5635 125.327 90.5725 125.288 90.5785 125.246C90.5845 125.204 90.5875 125.153 90.5875 125.093C90.5875 124.997 90.5065 124.901 90.3445 124.805C90.1825 124.709 89.9665 124.622 89.6965 124.544C89.4265 124.466 89.1175 124.4 88.7695 124.346C88.4215 124.292 88.0555 124.265 87.6715 124.265C87.3115 124.265 86.9335 124.307 86.5375 124.391C86.1415 124.475 85.7785 124.613 85.4485 124.805C85.1185 124.997 84.8485 125.252 84.6385 125.57C84.4285 125.888 84.3235 126.275 84.3235 126.731C84.3235 127.187 84.4285 127.574 84.6385 127.892C84.8485 128.21 85.1185 128.465 85.4485 128.657C85.7785 128.849 86.1415 128.987 86.5375 129.071C86.9335 129.155 87.3115 129.197 87.6715 129.197C87.8275 129.197 88.0735 129.17 88.4095 129.116C88.7455 129.062 89.0815 128.987 89.4175 128.891C89.7535 128.795 90.0505 128.687 90.3085 128.567C90.5665 128.447 90.6955 128.321 90.6955 128.189C90.6955 128.129 90.6835 128.081 90.6595 128.045C90.6355 128.009 90.6115 127.967 90.5875 127.919L90.7855 127.793L92.6395 130.619L92.4235 130.745C92.3995 130.685 92.3665 130.646 92.3245 130.628C92.2825 130.61 92.2315 130.601 92.1715 130.601C92.0875 130.601 91.9195 130.652 91.6675 130.754C91.4155 130.856 91.0885 130.964 90.6865 131.078C90.2845 131.192 89.8135 131.294 89.2735 131.384C88.7335 131.474 88.1275 131.519 87.4555 131.519C86.7355 131.519 86.0215 131.426 85.3135 131.24C84.6055 131.054 83.9695 130.76 83.4055 130.358C82.8415 129.956 82.3855 129.452 82.0375 128.846C81.6895 128.24 81.5155 127.535 81.5155 126.731C81.5155 125.927 81.6895 125.222 82.0375 124.616C82.3855 124.01 82.8415 123.506 83.4055 123.104C83.9695 122.702 84.6055 122.399 85.3135 122.195C86.0215 121.991 86.7355 121.889 87.4555 121.889C88.1755 121.889 88.7965 121.928 89.3185 122.006C89.8405 122.084 90.2815 122.171 90.6415 122.267C90.9895 122.363 91.2595 122.444 91.4515 122.51C91.6435 122.576 91.7875 122.609 91.8835 122.609C91.9915 122.609 92.0815 122.561 92.1535 122.465L92.3515 122.519L90.7315 125.489L90.5515 125.363Z"/>
<path d="M84.1075 145.249C84.3355 145.225 84.4765 145.186 84.5305 145.132C84.5845 145.078 84.6115 145.009 84.6115 144.925L84.6115 138.193L81.5155 138.193C81.4195 138.193 81.3475 138.226 81.2995 138.292C81.2515 138.358 81.2155 138.493 81.1915 138.697L80.9755 138.697L80.9755 135.493L81.1915 135.493C81.2155 135.697 81.2515 135.832 81.2995 135.898C81.3475 135.964 81.4195 135.997 81.5155 135.997L90.4075 135.997C90.5035 135.997 90.5755 135.964 90.6235 135.898C90.6715 135.832 90.7075 135.697 90.7315 135.493L90.9475 135.493L90.9475 138.697L90.7315 138.697C90.7075 138.493 90.6715 138.358 90.6235 138.292C90.5755 138.226 90.5035 138.193 90.4075 138.193L87.3115 138.193L87.3115 144.925C87.3115 145.009 87.3385 145.078 87.3925 145.132C87.4465 145.186 87.5875 145.225 87.8155 145.249L87.8155 145.465L84.1075 145.465L84.1075 145.249Z"/>
</g>
<g fill="#000000" opacity="1" stroke="none" vectornator:layerName="Text 6">
<path d="M107.123 128.851C107.891 128.851 108.614 128.956 109.292 129.166C109.97 129.376 110.564 129.685 111.074 130.093C111.584 130.501 111.989 131.005 112.289 131.605C112.589 132.205 112.739 132.901 112.739 133.693C112.739 134.485 112.589 135.181 112.289 135.781C111.989 136.381 111.584 136.885 111.074 137.293C110.564 137.701 109.97 138.001 109.292 138.193C108.614 138.385 107.891 138.481 107.123 138.481C106.355 138.481 105.632 138.385 104.954 138.193C104.276 138.001 103.682 137.701 103.172 137.293C102.662 136.885 102.257 136.381 101.957 135.781C101.657 135.181 101.507 134.485 101.507 133.693C101.507 132.901 101.657 132.205 101.957 131.605C102.257 131.005 102.662 130.501 103.172 130.093C103.682 129.685 104.276 129.376 104.954 129.166C105.632 128.956 106.355 128.851 107.123 128.851ZM107.123 131.047C106.727 131.047 106.352 131.107 105.998 131.227C105.644 131.347 105.332 131.518 105.062 131.74C104.792 131.962 104.576 132.238 104.414 132.568C104.252 132.898 104.171 133.273 104.171 133.693C104.171 134.113 104.252 134.488 104.414 134.818C104.576 135.148 104.792 135.424 105.062 135.646C105.332 135.868 105.644 136.039 105.998 136.159C106.352 136.279 106.727 136.339 107.123 136.339C107.519 136.339 107.894 136.279 108.248 136.159C108.602 136.039 108.914 135.868 109.184 135.646C109.454 135.424 109.67 135.148 109.832 134.818C109.994 134.488 110.075 134.113 110.075 133.693C110.075 133.273 109.994 132.898 109.832 132.568C109.67 132.238 109.454 131.962 109.184 131.74C108.914 131.518 108.602 131.347 108.248 131.227C107.894 131.107 107.519 131.047 107.123 131.047Z"/>
<path d="M102.587 143.499C102.587 143.415 102.56 143.346 102.506 143.292C102.452 143.238 102.311 143.199 102.083 143.175L102.083 142.959L106.421 142.959L106.421 143.175C106.217 143.187 106.082 143.214 106.016 143.256C105.95 143.298 105.917 143.349 105.917 143.409C105.917 143.433 105.995 143.541 106.151 143.733C106.307 143.925 106.511 144.165 106.763 144.453C107.015 144.741 107.3 145.062 107.618 145.416C107.936 145.77 108.257 146.124 108.581 146.478C108.905 146.832 109.217 147.168 109.517 147.486C109.817 147.804 110.075 148.077 110.291 148.305L110.291 143.499C110.291 143.295 110.165 143.187 109.913 143.175L109.913 142.959L113.207 142.959L113.207 143.175C112.979 143.199 112.838 143.238 112.784 143.292C112.73 143.346 112.703 143.415 112.703 143.499L112.703 151.887C112.703 151.971 112.73 152.04 112.784 152.094C112.838 152.148 112.979 152.187 113.207 152.211L113.207 152.427L109.787 152.427L109.787 152.211C109.955 152.211 110.066 152.193 110.12 152.157C110.174 152.121 110.201 152.073 110.201 152.013C110.201 151.977 110.183 151.932 110.147 151.878C110.111 151.824 110.033 151.731 109.913 151.599C109.793 151.467 109.616 151.278 109.382 151.032C109.148 150.786 108.839 150.456 108.455 150.042C108.071 149.628 107.597 149.112 107.033 148.494C106.469 147.876 105.791 147.123 104.999 146.235L104.999 151.887C104.999 151.971 105.026 152.04 105.08 152.094C105.134 152.148 105.275 152.187 105.503 152.211L105.503 152.427L102.083 152.427L102.083 152.211C102.311 152.187 102.452 152.148 102.506 152.094C102.56 152.04 102.587 151.971 102.587 151.887L102.587 143.499Z"/>
<path d="M104.261 166.211C104.489 166.187 104.63 166.148 104.684 166.094C104.738 166.04 104.765 165.971 104.765 165.887L104.765 159.155L101.669 159.155C101.573 159.155 101.501 159.188 101.453 159.254C101.405 159.32 101.369 159.455 101.345 159.659L101.129 159.659L101.129 156.455L101.345 156.455C101.369 156.659 101.405 156.794 101.453 156.86C101.501 156.926 101.573 156.959 101.669 156.959L110.561 156.959C110.657 156.959 110.729 156.926 110.777 156.86C110.825 156.794 110.861 156.659 110.885 156.455L111.101 156.455L111.101 159.659L110.885 159.659C110.861 159.455 110.825 159.32 110.777 159.254C110.729 159.188 110.657 159.155 110.561 159.155L107.465 159.155L107.465 165.887C107.465 165.971 107.492 166.04 107.546 166.094C107.6 166.148 107.741 166.187 107.969 166.211L107.969 166.427L104.261 166.427L104.261 166.211Z"/>
<path d="M108.311 174.955C108.839 174.955 109.202 174.856 109.4 174.658C109.598 174.46 109.697 174.229 109.697 173.965C109.697 173.701 109.598 173.47 109.4 173.272C109.202 173.074 108.839 172.975 108.311 172.975L105.287 172.975L105.287 174.955L108.311 174.955ZM105.287 179.887C105.287 179.971 105.314 180.04 105.368 180.094C105.422 180.148 105.563 180.187 105.791 180.211L105.791 180.427L102.083 180.427L102.083 180.211C102.311 180.187 102.452 180.148 102.506 180.094C102.56 180.04 102.587 179.971 102.587 179.887L102.587 171.499C102.587 171.415 102.56 171.346 102.506 171.292C102.452 171.238 102.311 171.199 102.083 171.175L102.083 170.959L108.671 170.959C110.003 170.959 110.969 171.202 111.569 171.688C112.169 172.174 112.469 172.927 112.469 173.947C112.469 174.775 112.226 175.423 111.74 175.891C111.254 176.359 110.639 176.695 109.895 176.899L112.019 179.887C112.163 180.103 112.337 180.211 112.541 180.211L112.541 180.427L108.797 180.427L108.797 180.211C109.061 180.199 109.193 180.091 109.193 179.887C109.193 179.863 109.145 179.779 109.049 179.635C108.953 179.491 108.833 179.317 108.689 179.113C108.545 178.909 108.386 178.69 108.212 178.456C108.038 178.222 107.87 177.997 107.708 177.781C107.546 177.565 107.405 177.373 107.285 177.205C107.165 177.037 107.087 176.923 107.051 176.863L105.287 176.863L105.287 179.887Z"/>
</g>
<path d="M112.623 213.683C112.719 213.683 112.791 213.65 112.839 213.584C112.887 213.518 112.923 213.383 112.947 213.179L113.163 213.179L113.163 216.293L112.947 216.293C112.923 216.101 112.887 215.984 112.839 215.942C112.791 215.9 112.719 215.879 112.623 215.879L103.227 215.879L103.227 215.663C103.455 215.639 103.596 215.6 103.65 215.546C103.704 215.492 103.731 215.423 103.731 215.339L103.731 206.951C103.731 206.867 103.704 206.798 103.65 206.744C103.596 206.69 103.455 206.651 103.227 206.627L103.227 206.411L106.935 206.411L106.935 206.627C106.707 206.651 106.566 206.69 106.512 206.744C106.458 206.798 106.431 206.867 106.431 206.951L106.431 213.683L112.623 213.683Z" fill="#000000" opacity="1" stroke="none" vectornator:layerName="Text 7"/>
<path d="M116.542 206.07C116.542 206.07 124.986 202.944 124.236 190.734" fill="none" opacity="1" stroke="#0000ff" stroke-linecap="round" stroke-linejoin="round" stroke-width="2" vectornator:layerName="Curve 1"/>
<path d="M124.283 189.923C123.711 191.638 122.237 193.153 120.412 193.978" fill="none" opacity="1" stroke="#0000ff" stroke-linecap="round" stroke-linejoin="round" stroke-width="2" vectornator:layerName="Curve 2"/>
<path d="M124.506 189.923C125.29 191.099 126.553 193.331 127.848 193.978" fill="none" opacity="1" stroke="#0000ff" stroke-linecap="round" stroke-linejoin="round" stroke-width="2" vectornator:layerName="Curve 3"/>
</g>
<g id="Logos" vectornator:layerName="Logos">
<path d="M80.7044 154.174" fill="none" opacity="1" stroke="#007aff" stroke-linecap="butt" stroke-linejoin="round" stroke-width="10" vectornator:layerName="Curve 2"/>
<path d="M56.5083 85.7883L56.5083 124.667L76.8942 114.099L76.8942 96.7751L56.5083 85.7883Z" fill="#ff00dd" fill-rule="nonzero" opacity="1" stroke="#000000" stroke-linecap="butt" stroke-linejoin="round" stroke-width="3" vectornator:layerName="Curve 1"/>
<path d="M119.017 86.3885L119.017 125.268L98.6314 114.7L98.6314 97.3753L119.017 86.3885Z" fill="#ff00dd" fill-rule="nonzero" opacity="1" stroke="#000000" stroke-linecap="butt" stroke-linejoin="round" stroke-width="3" vectornator:layerName="Curve 3"/>
<path d="M84.1203 97.1659L91.6922 97.1659L91.6922 114.49L84.1203 114.49L84.1203 97.1659Z" fill="#00ff2d" fill-rule="nonzero" opacity="1" stroke="#000000" stroke-linecap="butt" stroke-linejoin="round" stroke-width="3" vectornator:layerName="Rectangle 1"/>
<path d="M100.625 192.282C100.625 188.368 103.798 185.195 107.712 185.195C111.626 185.195 114.8 188.368 114.8 192.282C114.8 196.197 111.626 199.37 107.712 199.37C103.798 199.37 100.625 196.197 100.625 192.282Z" fill="#000000" fill-rule="nonzero" opacity="1" stroke="#00ff2d" stroke-linecap="butt" stroke-linejoin="round" stroke-width="3" vectornator:layerName="Oval 1"/>
</g>
</svg>
